<svg xmlns="http://www.w3.org/2000/svg" viewBox="0 0 340 340">
  <g fill="#fff">
    <path d="M303.42,0H36.58C16.38,0,0,16.38,0,36.57v266.85c0,20.2,16.38,36.58,36.58,36.58h266.85c20.2,0,36.58-16.38,36.58-36.58V36.57c0-20.2-16.38-36.57-36.58-36.57ZM309.2,195.23c-2.17,9.77,1.9,22.79-6.78,27.95-8.68,5.16-30.92-2.61-37.1,5.75-5.17,7,9.69,31.43,2.37,38.75-7.33,7.33-31.76-7.54-38.75-2.37-8.36,6.18-.59,28.42-5.75,37.1-5.16,8.68-18.18,4.61-27.95,6.78-9.77,2.17-10.58,17.46-25.23,17.46s-15.47-15.29-25.23-17.46c-9.77-2.17-22.79,1.9-27.95-6.78-5.16-8.68,2.61-30.92-5.75-37.1-7-5.17-31.43,9.69-38.75,2.37s7.54-31.76,2.37-38.75c-6.18-8.36-28.42-.59-37.1-5.75-8.68-5.16-4.61-18.18-6.78-27.95-2.17-9.77-17.46-10.58-17.46-25.23,0-14.65,15.29-15.47,17.46-25.23,2.17-9.77-1.9-22.79,6.78-27.95,8.68-5.16,30.92,2.61,37.1-5.75,5.17-7-9.69-31.43-2.37-38.75,7.33-7.33,31.76,7.54,38.75,2.37,8.36-6.18.59-28.42,5.75-37.1,5.16-8.68,18.18-4.61,27.95-6.78,9.77-2.17,10.58-17.46,25.23-17.46s15.47,15.29,25.23,17.46c9.77,2.17,22.79-1.9,27.95,6.78,5.16,8.68-2.61,30.92,5.75,37.1,7,5.17,31.43-9.69,38.75-2.37,7.33,7.33-7.54,31.76-2.37,38.75,6.18,8.36,28.42.59,37.1,5.75,8.68,5.16,4.61,18.18,6.78,27.95,2.17,9.77,17.46,10.58,17.46,25.23,0,14.65-15.29,15.47-17.46,25.23Z"/>
    <path d="M273.21,151.29c-1.61-7.24,1.41-16.9-5.03-20.72-6.44-3.82-22.93,1.94-27.51-4.26-3.83-5.19,7.19-23.3,1.76-28.74s-23.55,5.59-28.74,1.76c-6.2-4.58-.44-21.07-4.26-27.51-3.82-6.44-13.48-3.42-20.72-5.03-7.24-1.61-7.85-12.94-18.71-12.94s-11.47,11.33-18.71,12.94c-7.24,1.61-16.9-1.41-20.72,5.03-3.82,6.44,1.94,22.93-4.26,27.51-5.19,3.83-23.3-7.19-28.74-1.76s5.59,23.55,1.76,28.74c-4.58,6.2-21.07.44-27.51,4.26-6.44,3.82-3.42,13.48-5.03,20.72-1.61,7.24-12.94,7.85-12.94,18.71,0,10.86,11.33,11.47,12.94,18.71,1.61,7.24-1.41,16.9,5.03,20.72,6.44,3.82,22.93-1.94,27.51,4.26,3.83,5.19-7.19,23.3-1.76,28.74s23.55-5.59,28.74-1.76c6.2,4.58.44,21.07,4.26,27.51,3.82,6.44,13.48,3.42,20.72,5.03,7.24,1.61,7.85,12.94,18.71,12.94s11.47-11.33,18.71-12.94c7.24-1.61,16.9,1.41,20.72-5.03,3.82-6.44-1.94-22.93,4.26-27.51,5.19-3.83,23.3,7.19,28.74-1.76s-5.59-23.55-1.76-28.74c4.58-6.2,21.07-.44,27.51-4.26,6.44-3.82,3.42-13.48,5.03-20.72,1.61-7.24,12.94-7.85,12.94-18.71,0-10.86-11.33-11.47-12.94-18.71ZM234.86,181.76c-1.01,4.55.88,10.62-3.16,13.02-4.05,2.4-14.41-1.22-17.29,2.68-2.41,3.26,4.52,14.64,1.1,18.06-3.41,3.41-14.8-3.51-18.06-1.1-3.89,2.88-.28,13.24-2.68,17.29-2.4,4.05-8.47,2.15-13.02,3.16-4.55,1.01-4.93,8.13-11.76,8.13s-7.21-7.12-11.76-8.13c-4.55-1.01-10.62.88-13.02-3.16-2.4-4.05,1.22-14.41-2.68-17.29-3.26-2.41-14.64,4.52-18.06,1.1s3.51-14.8,1.1-18.06c-2.88-3.89-13.24-.28-17.29-2.68-4.05-2.4-2.15-8.47-3.16-13.02-1.01-4.55-8.13-4.93-8.13-11.76,0-6.83,7.12-7.21,8.13-11.76,1.01-4.55-.88-10.62,3.16-13.02,4.05-2.4,14.41,1.22,17.29-2.68,2.41-3.26-4.52-14.64-1.1-18.06,3.41-3.41,14.8,3.51,18.06,1.1,3.89-2.88.28-13.24,2.68-17.29,2.4-4.05,8.47-2.15,13.02-3.16,4.55-1.01,4.93-8.13,11.76-8.13s7.21,7.12,11.76,8.13c4.55,1.01,10.62-.89,13.02,3.16,2.4,4.05-1.22,14.41,2.68,17.29,3.26,2.41,14.64-4.52,18.06-1.1,3.41,3.41-3.51,14.8-1.1,18.06,2.88,3.89,13.24.28,17.29,2.68,4.05,2.4,2.15,8.47,3.16,13.02,1.01,4.55,8.13,4.93,8.13,11.76,0,6.83-7.12,7.21-8.13,11.76Z"/>
  </g>
</svg>
