<svg width="22" height="22" viewBox="0 0 22 22" fill="none" xmlns="http://www.w3.org/2000/svg">
<rect x="0.75" y="0.75" width="20.5" height="20.5" rx="10.25" fill="#1E3A8A"/>
<path fill-rule="evenodd" clip-rule="evenodd" d="M10.9824 11.0352V13.047C10.9824 13.0928 11.0512 13.1385 11.0971 13.1156L12.8643 12.1097C12.8872 12.0869 12.9102 12.064 12.9102 12.0411V10.0065C12.9102 9.96076 12.8413 9.91505 12.7954 9.93791L11.0741 10.9209C11.0282 10.9438 10.9824 10.9895 10.9824 11.0352Z" fill="#16161F"/>
<path fill-rule="evenodd" clip-rule="evenodd" d="M8.14764 12.2342L6.40339 11.2283C6.3575 11.2054 6.28864 11.2511 6.28864 11.2969V13.3086C6.28864 13.3772 6.31159 13.423 6.3575 13.4459L8.10174 14.4517C8.14764 14.4745 8.21649 14.4289 8.21649 14.3831V12.3713C8.21649 12.3027 8.19355 12.2571 8.14764 12.2342Z" fill="#16161F"/>
<path fill-rule="evenodd" clip-rule="evenodd" d="M8.14764 9.55367L6.40339 8.54773C6.3575 8.52488 6.28864 8.57059 6.28864 8.61632V10.6281C6.28864 10.6967 6.31159 10.7424 6.3575 10.7653L8.10174 11.7712C8.14764 11.794 8.21649 11.7483 8.21649 11.7026V9.6908C8.21649 9.62218 8.19355 9.57654 8.14764 9.55367Z" fill="#16161F"/>
<path fill-rule="evenodd" clip-rule="evenodd" d="M10.4945 10.8985L8.75025 9.89253C8.70435 9.86968 8.6355 9.9154 8.6355 9.96112V11.9729C8.6355 12.0415 8.65845 12.0872 8.70435 12.1101L10.4486 13.116C10.4945 13.1388 10.5633 13.0931 10.5633 13.0474V11.0356C10.5633 10.967 10.5404 10.9213 10.4945 10.8985Z" fill="#16161F"/>
<path fill-rule="evenodd" clip-rule="evenodd" d="M10.9527 16.4284V18.4402C10.9527 18.4859 11.0216 18.5316 11.0675 18.5088L12.8347 17.5029C12.8576 17.48 12.8806 17.4571 12.8806 17.4343V15.3996C12.8806 15.3539 12.8117 15.3082 12.7658 15.3311L11.0445 16.3141C10.9986 16.3369 10.9527 16.3827 10.9527 16.4284Z" fill="#D9DEE2"/>
<path fill-rule="evenodd" clip-rule="evenodd" d="M13.3005 15.0785V17.0902C13.3005 17.136 13.3694 17.1817 13.4153 17.1588L15.1825 16.153C15.2054 16.1301 15.2284 16.1072 15.2284 16.0844V14.0497C15.2284 14.004 15.1595 13.9583 15.1136 13.9811L13.3923 14.9642C13.3464 14.987 13.3005 15.0327 13.3005 15.0785Z" fill="#D9DEE2"/>
<path fill-rule="evenodd" clip-rule="evenodd" d="M15.6483 13.779V15.7908C15.6483 15.8365 15.7172 15.8823 15.7631 15.8594L17.5303 14.8535C17.5532 14.8307 17.5762 14.8078 17.5762 14.7849V12.7503C17.5762 12.7046 17.5073 12.6588 17.4614 12.6817L15.7401 13.6647C15.6942 13.6876 15.6483 13.7333 15.6483 13.779Z" fill="#D9DEE2"/>
<path fill-rule="evenodd" clip-rule="evenodd" d="M15.6483 11.1258V13.1376C15.6483 13.1833 15.7172 13.229 15.7631 13.2062L17.5303 12.2003C17.5532 12.1774 17.5762 12.1546 17.5762 12.1317V10.097C17.5762 10.0513 17.5073 10.0056 17.4614 10.0285L15.7401 11.0115C15.6942 11.0343 15.6483 11.0801 15.6483 11.1258Z" fill="#D9DEE2"/>
<path fill-rule="evenodd" clip-rule="evenodd" d="M15.6483 8.4122V10.424C15.6483 10.4697 15.7172 10.5154 15.7631 10.4926L17.5303 9.48668C17.5532 9.46383 17.5762 9.44096 17.5762 9.4181V7.38344C17.5762 7.33772 17.5073 7.292 17.4614 7.31486L15.7401 8.2979C15.6942 8.32075 15.6483 8.36647 15.6483 8.4122Z" fill="#D9DEE2"/>
<path fill-rule="evenodd" clip-rule="evenodd" d="M8.95273 6.72444L10.697 5.74141C10.7429 5.71855 10.8117 5.71855 10.8347 5.74141L12.6018 6.74732C12.6478 6.79303 12.6478 6.86161 12.6018 6.88447L10.8576 7.8675C10.8117 7.89037 10.7658 7.89037 10.72 7.8675L8.95273 6.86162C8.90683 6.81589 8.90683 6.74731 8.95273 6.72444Z" fill="#D9DEE2"/>
<path fill-rule="evenodd" clip-rule="evenodd" d="M11.2246 5.362L12.9689 4.37897C13.0148 4.35611 13.0836 4.35611 13.1065 4.37897L14.8737 5.38488C14.9196 5.43059 14.9196 5.49917 14.8737 5.52203L13.1295 6.50506C13.0836 6.52793 13.0377 6.52793 12.9918 6.50506L11.2246 5.49918C11.1787 5.45345 11.1787 5.38487 11.2246 5.362Z" fill="#D9DEE2"/>
<path fill-rule="evenodd" clip-rule="evenodd" d="M13.5768 6.72444L15.3211 5.74141C15.367 5.71855 15.4358 5.71855 15.4588 5.74141L17.2259 6.74732C17.2719 6.79303 17.2719 6.86161 17.2259 6.88447L15.4817 7.8675C15.4358 7.89037 15.3899 7.89037 15.3441 7.8675L13.5768 6.86162C13.5309 6.81589 13.5309 6.74731 13.5768 6.72444Z" fill="#D9DEE2"/>
<path fill-rule="evenodd" clip-rule="evenodd" d="M6.68776 5.36262L8.43203 4.37959C8.47795 4.35673 8.54674 4.35673 8.5697 4.37959L10.3369 5.38549C10.3828 5.43121 10.3828 5.49979 10.3369 5.52265L8.59266 6.50568C8.54674 6.52854 8.50081 6.52854 8.45499 6.50568L6.68776 5.4998C6.64185 5.45407 6.64185 5.38548 6.68776 5.36262Z" fill="#D9DEE2"/>
<path fill-rule="evenodd" clip-rule="evenodd" d="M8.95963 4.00018L10.7039 3.01715C10.7498 2.99428 10.8186 2.99428 10.8416 3.01715L12.6087 4.02305C12.6547 4.06877 12.6547 4.13735 12.6087 4.16021L10.8645 5.14324C10.8186 5.1661 10.7727 5.1661 10.7269 5.14324L8.95963 4.13736C8.91372 4.09163 8.91372 4.02304 8.95963 4.00018Z" fill="#D9DEE2"/>
<path fill-rule="evenodd" clip-rule="evenodd" d="M4.32865 6.72444L6.07292 5.74141C6.11885 5.71855 6.18763 5.71855 6.21059 5.74141L7.97776 6.74732C8.02369 6.79303 8.02369 6.86161 7.97776 6.88447L6.23355 7.8675C6.18763 7.89037 6.1417 7.89037 6.09588 7.8675L4.32865 6.86162C4.28274 6.81589 4.28274 6.74731 4.32865 6.72444Z" fill="#D9DEE2"/>
<path fill-rule="evenodd" clip-rule="evenodd" d="M5.859 10.9894L4.11475 9.9835C4.06886 9.96065 4 10.0064 4 10.0521L4 12.0639C4 12.1325 4.02295 12.1782 4.06886 12.2011L5.8131 13.207C5.859 13.2298 5.92785 13.1841 5.92785 13.1384V11.1266C5.92785 11.058 5.90491 11.0123 5.859 10.9894Z" fill="#D9DEE2"/>
<path fill-rule="evenodd" clip-rule="evenodd" d="M5.859 13.669L4.11475 12.663C4.06886 12.6402 4 12.6859 4 12.7316L4 14.7434C4 14.812 4.02295 14.8577 4.06886 14.8806L5.8131 15.8865C5.859 15.9093 5.92785 15.8636 5.92785 15.8179V13.8061C5.92785 13.7375 5.90491 13.6918 5.859 13.669Z" fill="#D9DEE2"/>
<path fill-rule="evenodd" clip-rule="evenodd" d="M8.1568 14.9304L6.41254 13.9245C6.36665 13.9016 6.29779 13.9473 6.29779 13.9931V16.0048C6.29779 16.0734 6.32075 16.1192 6.36665 16.1421L8.11089 17.148C8.1568 17.1707 8.22564 17.1251 8.22564 17.0793L8.22564 15.0676C8.22564 14.9989 8.2027 14.9533 8.1568 14.9304Z" fill="#D9DEE2"/>
<path fill-rule="evenodd" clip-rule="evenodd" d="M10.4833 16.292L8.73904 15.2861C8.69315 15.2632 8.62429 15.309 8.62429 15.3547V17.3664C8.62429 17.4351 8.64724 17.4808 8.69315 17.5037L10.4374 18.5096C10.4833 18.5323 10.5521 18.4867 10.5521 18.441V16.4292C10.5521 16.3606 10.5292 16.3149 10.4833 16.292Z" fill="#D9DEE2"/>
<path fill-rule="evenodd" clip-rule="evenodd" d="M5.859 8.26887L4.11475 7.26293C4.06886 7.24008 4 7.28579 4 7.33152L4 9.34328C4 9.4119 4.02295 9.45765 4.06886 9.48052L5.8131 10.4864C5.859 10.5092 5.92785 10.4635 5.92785 10.4178V8.406C5.92785 8.33739 5.90491 8.29174 5.859 8.26887Z" fill="#D9DEE2"/>
<path fill-rule="evenodd" clip-rule="evenodd" d="M6.62143 8.05637L8.3657 7.07334C8.41163 7.05048 8.48041 7.05048 8.50337 7.07334L10.2705 8.07925C10.3165 8.12496 10.3165 8.19354 10.2705 8.2164L8.52633 9.19943C8.48041 9.2223 8.43448 9.2223 8.38866 9.19943L6.62143 8.19355C6.57552 8.14782 6.57552 8.07924 6.62143 8.05637Z" fill="#16161F"/>
<path fill-rule="evenodd" clip-rule="evenodd" d="M8.95191 9.35944L10.6962 8.37641C10.7421 8.35354 10.8109 8.35354 10.8339 8.37641L12.601 9.38231C12.647 9.42803 12.647 9.4966 12.601 9.51947L10.8568 10.5025C10.8109 10.5254 10.765 10.5254 10.7191 10.5025L8.95191 9.49661C8.90601 9.45089 8.90601 9.3823 8.95191 9.35944Z" fill="#16161F"/>
<path fill-rule="evenodd" clip-rule="evenodd" d="M11.2569 8.05637L13.0012 7.07334C13.0471 7.05048 13.1159 7.05048 13.1389 7.07334L14.906 8.07925C14.952 8.12496 14.952 8.19354 14.906 8.2164L13.1618 9.19943C13.1159 9.2223 13.07 9.2223 13.0242 9.19943L11.2569 8.19355C11.211 8.14782 11.211 8.07924 11.2569 8.05637Z" fill="#4AE68D"/>
<path fill-rule="evenodd" clip-rule="evenodd" d="M13.2619 9.69044V11.7022C13.2619 11.7479 13.3307 11.7937 13.3766 11.7708L15.1438 10.7649C15.1668 10.7421 15.1897 10.7192 15.1897 10.6963V8.66168C15.1897 8.61596 15.1209 8.57024 15.075 8.5931L13.3537 9.57614C13.3078 9.59899 13.2619 9.64472 13.2619 9.69044Z" fill="#4AE68D"/>
<path fill-rule="evenodd" clip-rule="evenodd" d="M13.2619 12.371V14.3828C13.2619 14.4285 13.3307 14.4742 13.3766 14.4514L15.1438 13.4455C15.1668 13.4226 15.1897 13.3997 15.1897 13.3769V11.3422C15.1897 11.2965 15.1209 11.2508 15.075 11.2736L13.3537 12.2567C13.3078 12.2795 13.2619 12.3253 13.2619 12.371Z" fill="#4AE68D"/>
<path fill-rule="evenodd" clip-rule="evenodd" d="M10.9587 13.655V15.6668C10.9587 15.7125 11.0275 15.7582 11.0735 15.7354L12.8406 14.7295C12.8636 14.7066 12.8865 14.6837 12.8865 14.6609V12.6262C12.8865 12.5805 12.8177 12.5348 12.7718 12.5576L11.0505 13.5407C11.0046 13.5635 10.9587 13.6093 10.9587 13.655Z" fill="#4AE68D"/>
<path fill-rule="evenodd" clip-rule="evenodd" d="M10.4945 13.5636L8.75025 12.5576C8.70435 12.5348 8.6355 12.5805 8.6355 12.6262V14.638C8.6355 14.7066 8.65845 14.7524 8.70435 14.7752L10.4486 15.7811C10.4945 15.8039 10.5633 15.7583 10.5633 15.7125V13.7007C10.5633 13.6321 10.5404 13.5865 10.4945 13.5636Z" fill="#4AE68D"/>
<path fill-rule="evenodd" clip-rule="evenodd" d="M10.9614 11.0361V13.0479C10.9614 13.0936 11.0302 13.1393 11.0761 13.1165L12.8433 12.1106C12.8663 12.0877 12.8892 12.0648 12.8892 12.042V10.0073C12.8892 9.96159 12.8204 9.91587 12.7745 9.93873L11.0532 10.9218C11.0073 10.9446 10.9614 10.9903 10.9614 11.0361Z" fill="#156FF7"/>
<path fill-rule="evenodd" clip-rule="evenodd" d="M8.12668 12.235L6.38243 11.2291C6.33654 11.2062 6.26768 11.252 6.26768 11.2977V13.3094C6.26768 13.3781 6.29063 13.4238 6.33654 13.4467L8.08078 14.4526C8.12668 14.4753 8.19553 14.4297 8.19553 14.384V12.3722C8.19553 12.3035 8.17259 12.2579 8.12668 12.235Z" fill="#156FF7"/>
<path fill-rule="evenodd" clip-rule="evenodd" d="M8.12668 9.55449L6.38243 8.54855C6.33654 8.5257 6.26768 8.57142 6.26768 8.61714V10.6289C6.26768 10.6975 6.29063 10.7433 6.33654 10.7661L8.08078 11.772C8.12668 11.7948 8.19553 11.7492 8.19553 11.7034V9.69163C8.19553 9.62301 8.17259 9.57736 8.12668 9.55449Z" fill="#156FF7"/>
<path fill-rule="evenodd" clip-rule="evenodd" d="M10.4735 10.8993L8.72929 9.89336C8.68339 9.87051 8.61454 9.91622 8.61454 9.96195V11.9737C8.61454 12.0423 8.63749 12.0881 8.68339 12.1109L10.4276 13.1168C10.4735 13.1396 10.5424 13.094 10.5424 13.0482V11.0364C10.5424 10.9678 10.5194 10.9222 10.4735 10.8993Z" fill="#156FF7"/>
<path fill-rule="evenodd" clip-rule="evenodd" d="M6.60047 8.0572L8.34474 7.07417C8.39067 7.0513 8.45945 7.0513 8.48241 7.07417L10.2496 8.08007C10.2955 8.12579 10.2955 8.19436 10.2496 8.21723L8.50537 9.20026C8.45945 9.22312 8.41352 9.22312 8.3677 9.20026L6.60047 8.19437C6.55456 8.14865 6.55456 8.08006 6.60047 8.0572Z" fill="#156FF7"/>
<path fill-rule="evenodd" clip-rule="evenodd" d="M8.93095 9.36026L10.6752 8.37723C10.7211 8.35437 10.7899 8.35437 10.8129 8.37723L12.5801 9.38314C12.626 9.42885 12.626 9.49743 12.5801 9.52029L10.8359 10.5033C10.7899 10.5262 10.744 10.5262 10.6982 10.5033L8.93095 9.49744C8.88505 9.45171 8.88505 9.38313 8.93095 9.36026Z" fill="#156FF7"/>
<rect x="0.75" y="0.75" width="20.5" height="20.5" rx="10.25" stroke="#CBD5E1" stroke-width="0.5"/>
</svg>
